<svg width="262" height="356" viewBox="0 0 262 356" fill="none" xmlns="http://www.w3.org/2000/svg">
<circle cx="125.797" cy="125.797" r="121.478" fill="#EED7CD" stroke="url(#paint0_linear_56_320)" stroke-width="7.36232"/>
<path d="M214.334 162.425V81.7792C228.838 79.3793 243.637 79.3793 258.14 81.7792V162.425H214.334Z" fill="black" stroke="black" stroke-width="0.368116"/>
<path d="M250.777 41.2068V85.1606C241.227 87.5239 231.245 87.5239 221.696 85.1606V19.2276H228.798L250.777 41.2068Z" fill="#EED7CD" stroke="black" stroke-width="0.368116"/>
<path d="M210.651 228.685V144.374C227.685 143.166 244.784 143.166 261.819 144.374V228.685H210.651Z" fill="black" stroke="black" stroke-width="0.368116"/>
<path d="M214.334 81.8586C228.72 85.4155 243.755 85.4155 258.14 81.8586V147.728C243.637 150.128 228.838 150.128 214.334 147.728V81.8586Z" fill="url(#paint1_linear_56_320)" stroke="black" stroke-width="0.368116"/>
<path d="M210.651 144.447C227.379 149.179 245.091 149.179 261.819 144.447V236.072L254.95 237.054C242.536 238.827 229.933 238.827 217.52 237.054L210.651 236.072V144.447Z" fill="url(#paint2_linear_56_320)" stroke="black" stroke-width="0.368116"/>
<g filter="url(#filter0_f_56_320)">
<path d="M243.6 81.6232L247.281 85.7645V117.268V147.884L244.336 145.813L243.6 81.6232Z" fill="#603D29"/>
</g>
<g filter="url(#filter1_f_56_320)">
<path d="M217.826 151.565L225.188 156.857V197.111V236.232L219.299 233.586L217.826 151.565Z" fill="#25221F"/>
</g>
<g filter="url(#filter2_f_56_320)">
<path d="M243.6 147.884L247.281 153.406V195.411V236.232L244.336 233.471L243.6 147.884Z" fill="#25221F"/>
</g>
<g filter="url(#filter3_f_56_320)">
<path d="M217.826 81.6232L225.188 85.7645V117.268V147.884L219.299 145.813L217.826 81.6232Z" fill="#55341F"/>
</g>
<g filter="url(#filter4_f_56_320)">
<path d="M224.268 22.7247L239.913 41.1305L241.753 65.0581L239.913 83.4639L224.268 80.7669V22.7247Z" fill="#E9BCA6"/>
</g>
<g filter="url(#filter5_f_56_320)">
<path d="M225.195 26.4058L230.717 31.9275L232.558 54.0145L228.876 77.942H225.195V26.4058Z" fill="#E4D0C7"/>
</g>
<path d="M121.322 308.892L131.091 314.754L140.861 308.892V314.754L131.091 320.615L121.322 314.754V308.892Z" fill="url(#paint3_linear_56_320)"/>
<path d="M58.8008 54.8923H90.0623L84.8521 61.3485V196.928L90.0623 203.385H69.2213L74.4316 196.928V61.3485L58.8008 54.8923Z" fill="url(#paint4_linear_56_320)"/>
<path d="M70.5254 258.092H90.0639L86.2647 260.471V310.421L90.0639 312.8H74.8673L78.6664 310.421V260.471L70.5254 258.092Z" fill="url(#paint5_linear_56_320)"/>
<path d="M156.492 301.077H136.954L140.753 303.455V353.406L136.954 355.785H152.15L148.351 353.406V303.455L156.492 301.077Z" fill="url(#paint6_linear_56_320)"/>
<path d="M105.691 301.077H125.23L121.322 303.455V353.406L125.23 355.785H106.994L113.507 353.406V303.455L105.691 301.077Z" fill="url(#paint7_linear_56_320)"/>
<path d="M70.5254 258.092H90.0639L86.2647 260.471V310.421L90.0639 312.8H74.8673L78.6664 310.421V260.471L70.5254 258.092Z" fill="url(#paint8_linear_56_320)"/>
<path d="M183.846 78.3384H171.6C169.376 78.3384 167.185 78.8756 165.214 79.9042V79.9042C160.654 82.2834 157.794 87.0004 157.794 92.1439V197.948L152.584 203.385H173.425L168.215 197.948V94.8877C168.215 88.2344 172.427 82.3103 178.711 80.1245L183.846 78.3384Z" fill="url(#paint9_linear_56_320)"/>
<path d="M142.352 82.2461C148.367 72.5286 158.982 66.6154 170.411 66.6154H195.571H185.098C173.266 66.6154 161.967 71.5423 153.916 80.2133V80.2133C152.663 81.5622 151.6 83.0756 150.756 84.7115L127.837 129.138H113.323L93.9707 86.1538V72.4769L118.161 118.718L142.352 82.2461V82.2461Z" fill="url(#paint10_linear_56_320)"/>
<path d="M86.9866 296.815V296.214L89.0245 295.79V284.67L87.014 283.918V283.521L91.3359 282.195H91.6915V284.561L91.8283 284.698V295.79L93.8388 296.214V296.815H86.9866ZM95.6305 296.815V296.214L97.6546 295.817V287.46C97.6546 286.166 97.4495 285.236 97.0392 284.67C96.638 284.096 95.9906 283.809 95.0971 283.809C94.4041 283.809 93.743 283.982 93.1139 284.328C92.4939 284.666 91.9514 285.154 91.4863 285.792V284.643C92.2523 283.868 93.0957 283.266 94.0166 282.838C94.9466 282.409 95.8584 282.195 96.752 282.195C98.0011 282.195 98.9266 282.523 99.5284 283.18C100.13 283.827 100.431 284.839 100.431 286.216V295.817L102.455 296.214V296.815H95.6305ZM104.247 296.815V296.214L106.257 295.817V287.378C106.257 286.084 106.061 285.167 105.669 284.629C105.286 284.082 104.634 283.809 103.714 283.809C102.975 283.809 102.3 283.982 101.689 284.328C101.088 284.666 100.559 285.154 100.103 285.792V284.643C100.805 283.831 101.63 283.221 102.578 282.81C103.527 282.4 104.484 282.195 105.45 282.195C106.672 282.195 107.566 282.528 108.131 283.193C108.696 283.859 108.997 284.907 109.034 286.339V295.817L111.058 296.214V296.815H104.247ZM116.178 297.103C115.202 297.103 114.409 296.797 113.798 296.186C113.196 295.575 112.895 294.782 112.895 293.806C112.895 293.004 113.141 292.311 113.634 291.728C114.126 291.144 114.919 290.633 116.014 290.196C117.117 289.749 118.571 289.343 120.376 288.979V286.421C120.376 285.263 120.217 284.451 119.898 283.986C119.588 283.521 119.05 283.289 118.284 283.289C117.527 283.289 116.925 283.471 116.479 283.836C116.032 284.201 115.808 284.693 115.808 285.313C115.808 285.486 115.818 285.66 115.836 285.833C115.863 285.997 115.877 286.157 115.877 286.312C115.877 286.777 115.735 287.159 115.453 287.46C115.179 287.761 114.828 287.912 114.4 287.912C114.008 287.912 113.688 287.784 113.442 287.529C113.205 287.273 113.087 286.941 113.087 286.53C113.087 285.938 113.342 285.331 113.853 284.711C114.372 284.082 115.056 283.544 115.904 283.097C117.035 282.496 118.261 282.195 119.583 282.195C120.376 282.195 121.047 282.318 121.594 282.564C122.15 282.81 122.551 283.161 122.797 283.617C122.943 283.927 123.039 284.319 123.085 284.793C123.139 285.268 123.167 286.061 123.167 287.173V293.287C123.167 294.171 123.235 294.773 123.372 295.092C123.518 295.411 123.787 295.571 124.179 295.571C124.625 295.571 125.059 295.315 125.478 294.805L125.97 295.27C125.524 295.917 125.068 296.387 124.603 296.679C124.147 296.961 123.613 297.103 123.002 297.103C122.264 297.103 121.689 296.902 121.279 296.501C120.869 296.1 120.595 295.489 120.459 294.668H120.376C119.857 295.416 119.228 296.008 118.489 296.446C117.751 296.884 116.98 297.103 116.178 297.103ZM117.545 295.366C118.111 295.366 118.64 295.22 119.132 294.928C119.624 294.627 120.039 294.212 120.376 293.683V289.826C119.155 290.064 118.193 290.323 117.491 290.606C116.798 290.889 116.305 291.235 116.014 291.646C115.731 292.047 115.59 292.553 115.59 293.164C115.59 293.866 115.754 294.408 116.082 294.791C116.419 295.174 116.907 295.366 117.545 295.366ZM136.073 283.207C136.228 282.76 136.433 282.304 136.689 281.839C136.944 281.365 137.263 280.964 137.646 280.636C138.029 280.307 138.48 280.143 139 280.143C139.429 280.143 139.803 280.266 140.122 280.513C140.441 280.759 140.6 281.096 140.6 281.525C140.6 281.889 140.477 282.204 140.231 282.468C139.985 282.724 139.679 282.851 139.315 282.851C139.05 282.851 138.854 282.792 138.727 282.673C138.599 282.555 138.48 282.436 138.371 282.318C138.271 282.199 138.107 282.14 137.879 282.14C137.633 282.14 137.409 282.3 137.209 282.619C137.008 282.929 136.867 283.284 136.785 283.686L136.073 283.207ZM133.133 291.331C133.826 291.331 134.364 291.108 134.747 290.661C135.139 290.214 135.412 289.662 135.567 289.006C135.722 288.34 135.8 287.697 135.8 287.077C135.8 286.685 135.763 286.261 135.69 285.805C135.627 285.34 135.503 284.903 135.321 284.492C135.148 284.073 134.893 283.731 134.555 283.467C134.227 283.193 133.803 283.056 133.283 283.056C132.736 283.056 132.289 283.202 131.943 283.494C131.596 283.777 131.327 284.146 131.136 284.602C130.944 285.049 130.812 285.518 130.739 286.011C130.666 286.503 130.63 286.954 130.63 287.365C130.63 287.884 130.694 288.454 130.821 289.074C130.949 289.685 131.191 290.214 131.546 290.661C131.911 291.108 132.44 291.331 133.133 291.331ZM133.146 292.234C132.18 292.234 131.441 292.348 130.931 292.576C130.42 292.794 130.165 293.136 130.165 293.601C130.165 293.93 130.393 294.203 130.849 294.422C131.314 294.632 132.212 294.837 133.543 295.037L135.499 295.379C137.085 295.626 138.253 296.045 139 296.638C139.757 297.221 140.135 298.014 140.135 299.017C140.135 299.847 139.903 300.567 139.438 301.178C138.973 301.789 138.348 302.291 137.564 302.683C136.789 303.084 135.923 303.38 134.966 303.572C134.008 303.763 133.037 303.859 132.052 303.859C131.332 303.859 130.625 303.791 129.932 303.654C129.239 303.526 128.61 303.321 128.045 303.038C127.489 302.756 127.042 302.391 126.705 301.944C126.367 301.497 126.199 300.955 126.199 300.317C126.199 299.569 126.477 298.894 127.033 298.293C127.589 297.7 128.546 297.13 129.905 296.583L130.739 296.925C130.046 297.189 129.504 297.6 129.112 298.156C128.72 298.721 128.524 299.327 128.524 299.975C128.524 300.64 128.711 301.187 129.084 301.616C129.458 302.054 129.955 302.377 130.575 302.587C131.204 302.806 131.884 302.915 132.613 302.915C133.498 302.915 134.341 302.815 135.143 302.614C135.955 302.414 136.616 302.104 137.126 301.684C137.646 301.265 137.906 300.727 137.906 300.071C137.906 299.733 137.797 299.428 137.578 299.154C137.359 298.881 136.935 298.621 136.306 298.375C135.686 298.138 134.769 297.905 133.557 297.677L131.3 297.253C130.106 297.025 129.208 296.67 128.606 296.186C128.013 295.703 127.717 295.124 127.717 294.449C127.717 294.139 127.812 293.806 128.004 293.451C128.205 293.095 128.587 292.762 129.153 292.452C129.718 292.133 130.552 291.896 131.656 291.741L133.146 292.234ZM133.146 292.234C132.08 292.234 131.136 292.028 130.315 291.618C129.495 291.199 128.852 290.615 128.387 289.868C127.922 289.111 127.689 288.231 127.689 287.228C127.689 286.261 127.926 285.4 128.401 284.643C128.884 283.886 129.54 283.289 130.37 282.851C131.2 282.414 132.139 282.195 133.188 282.195C134.227 282.195 135.166 282.409 136.005 282.838C136.844 283.257 137.509 283.841 138.002 284.588C138.494 285.336 138.74 286.188 138.74 287.146C138.74 288.048 138.508 288.887 138.043 289.662C137.578 290.428 136.926 291.048 136.087 291.522C135.248 291.997 134.268 292.234 133.146 292.234ZM141.28 296.815V296.214L143.359 295.79V284.643L141.321 283.918V283.494L145.862 282.195H146.163V295.79L148.214 296.214V296.815H141.28ZM144.74 279.323C144.184 279.323 143.742 279.145 143.414 278.789C143.085 278.434 142.921 278.019 142.921 277.545C142.921 277.025 143.085 276.587 143.414 276.232C143.742 275.876 144.184 275.698 144.74 275.698C145.306 275.698 145.752 275.876 146.081 276.232C146.418 276.587 146.587 277.025 146.587 277.545C146.587 278.019 146.418 278.434 146.081 278.789C145.752 279.145 145.306 279.323 144.74 279.323ZM158.532 296.815V296.214L160.529 295.817V287.036C160.529 285.951 160.31 285.144 159.872 284.616C159.434 284.078 158.728 283.809 157.752 283.809C156.321 283.809 155.131 284.461 154.182 285.764V284.629C154.948 283.863 155.787 283.266 156.699 282.838C157.611 282.409 158.518 282.195 159.421 282.195C162.019 282.195 163.319 283.421 163.319 285.874V295.817L165.343 296.214V296.815H158.532ZM149.628 296.815V296.214L151.68 295.79V284.67L149.655 283.918V283.521L154.032 282.195H154.333V284.616L154.47 284.752V295.79L156.48 296.214V296.815H149.628ZM173.781 297.103C172.459 297.103 171.296 296.802 170.293 296.2C169.299 295.589 168.524 294.741 167.968 293.656C167.421 292.562 167.148 291.299 167.148 289.868C167.148 288.345 167.453 287.009 168.064 285.86C168.684 284.711 169.546 283.813 170.649 283.166C171.761 282.518 173.047 282.195 174.506 282.195C176.311 282.195 177.692 282.719 178.65 283.768C179.616 284.816 180.118 286.353 180.154 288.377L179.963 288.541H169.363V287.748L177.022 287.474C177.086 287.237 177.118 286.877 177.118 286.394C177.118 284.205 176.156 283.111 174.232 283.111C172.91 283.111 171.889 283.631 171.169 284.67C170.457 285.701 170.102 287.164 170.102 289.061C170.102 293.027 171.643 295.01 174.725 295.01C176.73 295.01 178.267 294.281 179.334 292.822L179.84 293.136C179.366 294.395 178.595 295.37 177.528 296.063C176.471 296.756 175.221 297.103 173.781 297.103Z" fill="url(#paint11_linear_56_320)"/>
<path d="M157.06 343.995C155.656 343.995 154.411 343.671 153.326 343.024C152.241 342.367 151.388 341.478 150.768 340.357C150.157 339.226 149.852 337.954 149.852 336.541C149.852 335.119 150.157 333.847 150.768 332.725C151.388 331.604 152.241 330.719 153.326 330.072C154.411 329.415 155.656 329.087 157.06 329.087C158.464 329.087 159.704 329.415 160.78 330.072C161.865 330.719 162.717 331.604 163.337 332.725C163.957 333.847 164.267 335.119 164.267 336.541C164.267 337.954 163.957 339.226 163.337 340.357C162.717 341.478 161.865 342.367 160.78 343.024C159.704 343.671 158.464 343.995 157.06 343.995ZM157.032 342.737C157.698 342.737 158.286 342.591 158.797 342.299C159.307 341.998 159.736 341.574 160.082 341.027C160.438 340.471 160.707 339.814 160.889 339.058C161.072 338.292 161.163 337.444 161.163 336.514C161.163 335.593 161.072 334.754 160.889 333.997C160.716 333.24 160.456 332.588 160.11 332.041C159.763 331.494 159.335 331.075 158.824 330.783C158.313 330.482 157.725 330.332 157.06 330.332C156.394 330.332 155.806 330.482 155.295 330.783C154.785 331.075 154.356 331.494 154.01 332.041C153.663 332.588 153.399 333.245 153.217 334.011C153.043 334.768 152.957 335.611 152.957 336.541C152.957 337.471 153.043 338.314 153.217 339.071C153.399 339.828 153.663 340.48 154.01 341.027C154.356 341.574 154.78 341.998 155.282 342.299C155.792 342.591 156.376 342.737 157.032 342.737ZM166.272 343.708V343.106L168.351 342.682V331.535L166.313 330.81V330.386L170.854 329.087H171.155V342.682L173.206 343.106V343.708H166.272ZM169.732 326.215C169.176 326.215 168.734 326.037 168.406 325.681C168.077 325.326 167.913 324.911 167.913 324.437C167.913 323.917 168.077 323.479 168.406 323.124C168.734 322.768 169.176 322.59 169.732 322.59C170.298 322.59 170.744 322.768 171.073 323.124C171.41 323.479 171.579 323.917 171.579 324.437C171.579 324.911 171.41 325.326 171.073 325.681C170.744 326.037 170.298 326.215 169.732 326.215Z" fill="url(#paint12_linear_56_320)"/>
<defs>
<filter id="filter0_f_56_320" x="236.237" y="74.2608" width="18.4063" height="80.9855" filterUnits="userSpaceOnUse" color-interpolation-filters="sRGB">
<feFlood flood-opacity="0" result="BackgroundImageFix"/>
<feBlend mode="normal" in="SourceGraphic" in2="BackgroundImageFix" result="shape"/>
<feGaussianBlur stdDeviation="3.68116" result="effect1_foregroundBlur_56_320"/>
</filter>
<filter id="filter1_f_56_320" x="210.464" y="144.203" width="22.0879" height="99.3913" filterUnits="userSpaceOnUse" color-interpolation-filters="sRGB">
<feFlood flood-opacity="0" result="BackgroundImageFix"/>
<feBlend mode="normal" in="SourceGraphic" in2="BackgroundImageFix" result="shape"/>
<feGaussianBlur stdDeviation="3.68116" result="effect1_foregroundBlur_56_320"/>
</filter>
<filter id="filter2_f_56_320" x="236.237" y="140.522" width="18.4063" height="103.072" filterUnits="userSpaceOnUse" color-interpolation-filters="sRGB">
<feFlood flood-opacity="0" result="BackgroundImageFix"/>
<feBlend mode="normal" in="SourceGraphic" in2="BackgroundImageFix" result="shape"/>
<feGaussianBlur stdDeviation="3.68116" result="effect1_foregroundBlur_56_320"/>
</filter>
<filter id="filter3_f_56_320" x="210.464" y="74.2608" width="22.0879" height="80.9855" filterUnits="userSpaceOnUse" color-interpolation-filters="sRGB">
<feFlood flood-opacity="0" result="BackgroundImageFix"/>
<feBlend mode="normal" in="SourceGraphic" in2="BackgroundImageFix" result="shape"/>
<feGaussianBlur stdDeviation="3.68116" result="effect1_foregroundBlur_56_320"/>
</filter>
<filter id="filter4_f_56_320" x="216.905" y="15.3624" width="32.211" height="75.4638" filterUnits="userSpaceOnUse" color-interpolation-filters="sRGB">
<feFlood flood-opacity="0" result="BackgroundImageFix"/>
<feBlend mode="normal" in="SourceGraphic" in2="BackgroundImageFix" result="shape"/>
<feGaussianBlur stdDeviation="3.68116" result="effect1_foregroundBlur_56_320"/>
</filter>
<filter id="filter5_f_56_320" x="217.833" y="19.0434" width="22.0879" height="66.2609" filterUnits="userSpaceOnUse" color-interpolation-filters="sRGB">
<feFlood flood-opacity="0" result="BackgroundImageFix"/>
<feBlend mode="normal" in="SourceGraphic" in2="BackgroundImageFix" result="shape"/>
<feGaussianBlur stdDeviation="3.68116" result="effect1_foregroundBlur_56_320"/>
</filter>
<linearGradient id="paint0_linear_56_320" x1="83.4638" y1="7.99999" x2="210.464" y2="206.783" gradientUnits="userSpaceOnUse">
<stop stop-color="#CB9371"/>
<stop offset="1" stop-color="#532000"/>
</linearGradient>
<linearGradient id="paint1_linear_56_320" x1="214.15" y1="114.754" x2="258.324" y2="114.754" gradientUnits="userSpaceOnUse">
<stop stop-color="#834E2D"/>
<stop offset="1" stop-color="#B27B59"/>
</linearGradient>
<linearGradient id="paint2_linear_56_320" x1="210.467" y1="190.217" x2="262.003" y2="190.217" gradientUnits="userSpaceOnUse">
<stop stop-color="#515152"/>
<stop offset="1" stop-color="#5E5D5E"/>
</linearGradient>
<linearGradient id="paint3_linear_56_320" x1="123.276" y1="314.754" x2="138.907" y2="314.754" gradientUnits="userSpaceOnUse">
<stop stop-color="#B47E5B"/>
<stop offset="0.5" stop-color="#6D3A19"/>
<stop offset="1" stop-color="#B57F5C"/>
</linearGradient>
<linearGradient id="paint4_linear_56_320" x1="79.6418" y1="54.8923" x2="79.6418" y2="203.385" gradientUnits="userSpaceOnUse">
<stop stop-color="#CA9370"/>
<stop offset="1" stop-color="#6A3716"/>
</linearGradient>
<linearGradient id="paint5_linear_56_320" x1="82.4656" y1="258.092" x2="82.4656" y2="312.8" gradientUnits="userSpaceOnUse">
<stop stop-color="#CA9370"/>
<stop offset="1" stop-color="#6A3716"/>
</linearGradient>
<linearGradient id="paint6_linear_56_320" x1="144.552" y1="301.077" x2="144.552" y2="355.785" gradientUnits="userSpaceOnUse">
<stop stop-color="#CA9370"/>
<stop offset="1" stop-color="#6A3716"/>
</linearGradient>
<linearGradient id="paint7_linear_56_320" x1="116.112" y1="301.077" x2="116.112" y2="355.785" gradientUnits="userSpaceOnUse">
<stop stop-color="#CA9370"/>
<stop offset="1" stop-color="#6A3716"/>
</linearGradient>
<linearGradient id="paint8_linear_56_320" x1="82.4656" y1="258.092" x2="82.4656" y2="312.8" gradientUnits="userSpaceOnUse">
<stop stop-color="#CA9370"/>
<stop offset="1" stop-color="#6A3716"/>
</linearGradient>
<linearGradient id="paint9_linear_56_320" x1="163.005" y1="78.3384" x2="163.005" y2="203.385" gradientUnits="userSpaceOnUse">
<stop stop-color="#CA9370"/>
<stop offset="1" stop-color="#6A3716"/>
</linearGradient>
<linearGradient id="paint10_linear_56_320" x1="93.9707" y1="103.087" x2="182.661" y2="71.06" gradientUnits="userSpaceOnUse">
<stop stop-color="#C9926F"/>
<stop offset="1" stop-color="#532001"/>
</linearGradient>
<linearGradient id="paint11_linear_56_320" x1="90.7238" y1="291.915" x2="177.532" y2="294.987" gradientUnits="userSpaceOnUse">
<stop stop-color="#6B3817"/>
<stop offset="1" stop-color="#C68F6C"/>
</linearGradient>
<linearGradient id="paint12_linear_56_320" x1="150.164" y1="338.808" x2="178.465" y2="339.134" gradientUnits="userSpaceOnUse">
<stop stop-color="#6B3817"/>
<stop offset="1" stop-color="#C68F6C"/>
</linearGradient>
</defs>
</svg>
